<?xml version="1.0" encoding="UTF-8"?>
<svg version="1.1" xmlns="http://www.w3.org/2000/svg" width="1280" height="1280">
<path d="M0 0 C44.92125 -0.0928125 44.92125 -0.0928125 90.75 -0.1875 C104.88602051 -0.22846802 104.88602051 -0.22846802 119.30761719 -0.27026367 C130.89697266 -0.28381348 130.89697266 -0.28381348 136.3381958 -0.28633118 C140.10403852 -0.2891039 143.86975183 -0.30025652 147.63555908 -0.31672668 C152.463805 -0.33755837 157.29186722 -0.34342726 162.1201539 -0.33921683 C163.87667198 -0.34009508 165.6331976 -0.34589158 167.38967657 -0.35764539 C183.31129424 -0.45909494 198.94785388 1.42700788 214.4375 5.1875 C215.29327637 5.3947168 216.14905273 5.60193359 217.03076172 5.81542969 C244.09443406 12.69861875 268.41089342 25.91863859 291 42 C291.79672119 42.56428711 292.59344238 43.12857422 293.41430664 43.70996094 C294.14383545 44.23879883 294.87336426 44.76763672 295.625 45.3125 C296.27726562 45.78300781 296.92953125 46.25351562 297.6015625 46.73828125 C298.29378906 47.36283203 298.29378906 47.36283203 299 48 C299 48.66 299 49.32 299 50 C299.556875 50.2475 300.11375 50.495 300.6875 50.75 C303.42410913 52.22924818 305.67650869 53.93467439 308 56 C308 56.66 308 57.32 308 58 C308.66 58 309.32 58 310 58 C310 58.66 310 59.32 310 60 C310.66 60 311.32 60 312 60 C312 60.66 312 61.32 312 62 C312.66 62 313.32 62 314 62 C314 62.66 314 63.32 314 64 C314.99 64.33 315.98 64.66 317 65 C318.7890625 66.7421875 318.7890625 66.7421875 320.625 68.875 C321.54152344 69.92300781 321.54152344 69.92300781 322.4765625 70.9921875 C324 73 324 73 325 76 C325.66 76 326.32 76 327 76 C328.2890625 77.4609375 328.2890625 77.4609375 329.625 79.375 C330.07101562 80.00148438 330.51703125 80.62796875 330.9765625 81.2734375 C332 83 332 83 332 85 C332.66 85 333.32 85 334 85 C336.61761767 88.24217207 338.79714882 91.81828319 341.0625 95.3125 C341.73917725 96.35470703 342.41585449 97.39691406 343.11303711 98.47070312 C348.95640571 107.63688104 353.77080734 117.00000574 358 127 C358.29197266 127.68030273 358.58394531 128.36060547 358.88476562 129.06152344 C365.7357577 145.13379334 370.39772057 161.73311063 373 179 C373.33 179 373.66 179 374 179 C374.103125 177.741875 374.20625 176.48375 374.3125 175.1875 C374.82160511 170.59838351 375.90007859 166.33128139 377.1796875 161.90234375 C378.29994842 157.93875391 379.22534652 153.93362573 380.15625 149.921875 C381.1548643 146.46371066 382.55634581 143.29675554 384 140 C385.05403532 137.30390965 386.05903398 134.59026099 387.0625 131.875 C388.6619687 127.5640894 390.2678684 123.25988345 392 119 C392.66 119 393.32 119 394 119 C394.12076904 118.43458496 394.24153809 117.86916992 394.3659668 117.28662109 C396.66537806 108.99386564 402.02749629 101.49958098 406.6875 94.375 C407.26822266 93.46621094 407.84894531 92.55742188 408.44726562 91.62109375 C409.00478516 90.76386719 409.56230469 89.90664063 410.13671875 89.0234375 C410.89021606 87.86207275 410.89021606 87.86207275 411.65893555 86.67724609 C412.32276245 85.84700928 412.32276245 85.84700928 413 85 C413.66 85 414.32 85 415 85 C415.268125 84.443125 415.53625 83.88625 415.8125 83.3125 C417.10899496 80.78774666 418.42476323 78.36285516 420 76 C420.66 76 421.32 76 422 76 C422 75.34 422 74.68 422 74 C422.66 74 423.32 74 424 74 C424.226875 73.46375 424.45375 72.9275 424.6875 72.375 C426.45570089 69.17539839 428.53670203 66.70962777 431 64 C431.66 64 432.32 64 433 64 C433 63.34 433 62.68 433 62 C433.66 62 434.32 62 435 62 C435 61.34 435 60.68 435 60 C435.804375 59.690625 436.60875 59.38125 437.4375 59.0625 C440.59136165 57.5002383 442.65309072 55.42221682 445.0625 52.875 C449.60777451 48.13680213 454.51570455 44.70714921 459.984375 41.140625 C463.07155107 39.08739117 463.07155107 39.08739117 465.5625 36.35546875 C468.17046347 33.83527329 469.80541019 33.05158936 473.25 32.0625 C476.87397916 30.96997687 480.45783385 29.85598279 484 28.5234375 C485.05525879 28.13079712 485.05525879 28.13079712 486.13183594 27.73022461 C487.47695698 27.22681197 488.81916897 26.71550079 490.15722656 26.19360352 C502.81461026 21.54290308 515.94790628 20.43924211 529.3125 20.5625 C530.02956116 20.56587372 530.74662231 20.56924744 531.4854126 20.57272339 C543.03861367 20.65113878 553.93615844 21.4966157 565 25 C565.79535156 25.24669434 566.59070313 25.49338867 567.41015625 25.74755859 C588.98736587 32.62339476 605.81234805 45.48500568 622 61 C622.58539551 61.55284668 623.17079102 62.10569336 623.77392578 62.67529297 C633.63696949 72.02428491 642.10855789 81.94300449 650 93 C650.44682129 93.61810547 650.89364258 94.23621094 651.35400391 94.87304688 C679.78043243 134.4958099 690.15693321 180.37511049 690.35009766 228.36352539 C690.3634304 231.32445198 690.39129542 234.2846884 690.43212891 237.24536133 C690.48186358 240.85443012 690.50626565 244.4628747 690.51332474 248.07227135 C690.52315262 250.08615479 690.55728082 252.09987378 690.59213257 254.11347961 C690.56669572 265.2820987 687.88416608 275.01168184 680.0234375 283.25 C671.08690011 290.97889721 662.47510328 293.30410402 650.92301369 293.24609566 C649.79838724 293.24840335 648.6737608 293.25071103 647.51505476 293.25308865 C643.72544191 293.25840602 639.93599709 293.24938998 636.14639282 293.24050903 C633.41059451 293.24026759 630.67480115 293.24304658 627.9390043 293.24568737 C621.98006948 293.24983515 616.0211746 293.24654677 610.06224442 293.23841095 C601.20152346 293.22634685 592.3408277 293.22573879 583.48010003 293.22749493 C568.5753653 293.23012363 553.6706483 293.22343647 538.76591873 293.21146011 C524.0060276 293.19963051 509.24614385 293.19192912 494.48624802 293.18975449 C493.56889889 293.18961701 492.65154976 293.18947953 491.70640217 293.18933788 C487.04774619 293.18866123 482.38909021 293.18805845 477.73043422 293.18748413 C444.72376753 293.18328208 411.71711048 293.16980394 378.71044922 293.15087891 C346.6427414 293.13251344 314.57503623 293.11837836 282.50732422 293.10986328 C280.4911838 293.109322 278.47504338 293.10878059 276.45890296 293.10823905 C260.07720662 293.10386158 243.69551022 293.0997764 227.31381379 293.09576209 C151.54253339 293.07698366 75.77127815 293.03684378 0 293 C0 196.31 0 99.62 0 0 Z " fill="#15F5BA" transform="translate(266,617)"/>
<path d="M0 0 C1.12462645 -0.00230769 2.24925289 -0.00461538 3.40795892 -0.006993 C7.19757177 -0.01231036 10.98701659 -0.00329432 14.77662086 0.00558662 C17.51241917 0.00582806 20.24821254 0.00304908 22.98400939 0.00040829 C28.9429442 -0.00373949 34.90183909 -0.00045111 40.86076927 0.00768471 C49.72149023 0.0197488 58.58218598 0.02035687 67.44291366 0.01860073 C82.34764838 0.01597202 97.25236539 0.02265919 112.15709496 0.03463554 C126.91698609 0.04646514 141.67686983 0.05416654 156.43676567 0.05634117 C157.3541148 0.05647865 158.27146393 0.05661613 159.21661152 0.05675778 C163.87526749 0.05743443 168.53392348 0.0580372 173.19257946 0.05861153 C206.19924616 0.06281358 239.20590321 0.07629171 272.21256447 0.09521675 C304.28027229 0.11358221 336.34797746 0.1277173 368.41568947 0.13623238 C370.43182989 0.13677366 372.44797031 0.13731507 374.46411073 0.1378566 C390.84580707 0.14223408 407.22750347 0.14631926 423.6091999 0.15033357 C499.3804803 0.169112 575.15173554 0.20925188 650.92301369 0.24609566 C650.92301369 96.93609566 650.92301369 193.62609566 650.92301369 293.24609566 C620.64551369 293.30797066 590.36801369 293.36984566 559.17301369 293.43359566 C549.64458595 293.46090767 540.11615822 293.48821968 530.29899025 293.51635933 C518.58268166 293.52990913 518.58268166 293.52990913 513.08213234 293.53242683 C509.27462357 293.53519994 505.46724276 293.54635417 501.65976906 293.56282234 C496.7785 293.5836499 491.89741263 293.58952365 487.01610327 293.58531249 C485.2400477 293.58619092 483.46398469 293.59198993 481.68796778 293.60374105 C465.39617633 293.70638617 449.37359853 291.87174723 433.61051369 287.62109566 C432.66595314 287.36876167 431.72139259 287.11642769 430.748209 286.85644722 C398.20518757 277.80894936 366.56817635 260.5336858 341.92301369 237.24609566 C341.92301369 236.58609566 341.92301369 235.92609566 341.92301369 235.24609566 C341.26301369 235.24609566 340.60301369 235.24609566 339.92301369 235.24609566 C339.92301369 234.58609566 339.92301369 233.92609566 339.92301369 233.24609566 C339.26301369 233.24609566 338.60301369 233.24609566 337.92301369 233.24609566 C336.33707619 231.63672066 336.33707619 231.63672066 334.54801369 229.49609566 C332.58543642 227.17705864 330.66418419 224.99390281 328.48551369 222.87109566 C326.92301369 221.24609566 326.92301369 221.24609566 326.92301369 219.24609566 C326.26301369 219.24609566 325.60301369 219.24609566 324.92301369 219.24609566 C323.19645119 217.34765816 323.19645119 217.34765816 321.29801369 214.87109566 C320.35055275 213.65293159 320.35055275 213.65293159 319.38395119 212.41015816 C317.92301369 210.24609566 317.92301369 210.24609566 317.92301369 208.24609566 C317.26301369 208.24609566 316.60301369 208.24609566 315.92301369 208.24609566 C314.62955666 206.66406441 314.62955666 206.66406441 313.16520119 204.43359566 C312.62588966 203.61342964 312.08657814 202.79326363 311.53092384 201.94824409 C310.95906349 201.05653511 310.38720314 200.16482613 309.79801369 199.24609566 C309.21197365 198.3363398 308.62593361 197.42658394 308.02213478 196.48925972 C303.0505521 188.6569952 298.77785025 180.67443109 294.92301369 172.24609566 C294.61670021 171.59189644 294.31038673 170.93769722 293.99479103 170.26367378 C289.7243124 161.12061249 286.25914468 151.90993186 283.48600197 142.20752144 C282.92864095 140.2657008 282.34666266 138.33244841 281.76285744 136.39843941 C279.31478252 127.91353459 278.19468784 120.06192176 277.92301369 111.24609566 C277.26301369 111.24609566 276.60301369 111.24609566 275.92301369 111.24609566 C275.89723244 112.07109566 275.87145119 112.89609566 275.84488869 113.74609566 C275.24594964 125.94267261 272.80050151 136.99432481 267.92301369 148.24609566 C267.31173525 150.25865219 266.72798981 152.27979142 266.17301369 154.30859566 C263.93453035 161.75881501 260.52065974 168.37498705 256.92301369 175.24609566 C255.98389729 177.20365436 255.0463384 179.1619612 254.11051369 181.12109566 C248.13253415 193.04525696 240.75250383 205.1987448 231.92301369 215.24609566 C231.26301369 215.24609566 230.60301369 215.24609566 229.92301369 215.24609566 C229.63426369 215.84422066 229.34551369 216.44234566 229.04801369 217.05859566 C227.92301369 219.24609566 227.92301369 219.24609566 225.92301369 222.24609566 C225.26301369 222.24609566 224.60301369 222.24609566 223.92301369 222.24609566 C223.70902931 222.78363472 223.49504494 223.32117378 223.27457619 223.87500191 C221.42782862 227.11481629 218.92822156 229.58084045 216.29801369 232.18359566 C215.75314308 232.72427681 215.20827248 233.26495796 214.64689064 233.82202339 C211.37857885 236.99940095 208.2190734 239.64345339 204.21598244 241.85547066 C201.60640845 243.43810838 199.25413352 245.24434919 196.83487892 247.10058784 C186.19465068 255.21493378 174.96718483 260.95074025 162.42301369 265.55859566 C161.80829201 265.78909615 161.19357033 266.01959663 160.56022072 266.25708199 C147.91197697 270.64002519 134.89331128 271.80609917 121.61051369 271.68359566 C120.89345253 271.68022194 120.17639137 271.67684822 119.43760109 271.67337227 C107.88665234 271.59497216 96.98363467 270.75554837 85.92301369 267.24609566 C84.73796242 266.87605415 84.73796242 266.87605415 83.52897072 266.49853706 C62.10875334 259.62025319 45.12055357 247.77718935 28.92301369 232.24609566 C28.33616798 231.69179878 27.74932228 231.13750191 27.14469337 230.56640816 C17.28314924 221.21897296 8.81319602 211.30132604 0.92301369 200.24609566 C0.25278175 199.31893745 0.25278175 199.31893745 -0.43099022 198.37304878 C-28.85741874 158.75028576 -39.23391953 112.87098517 -39.42708397 64.88257027 C-39.44041672 61.92164368 -39.46828173 58.96140726 -39.50911522 56.00073433 C-39.55884989 52.39166554 -39.58325196 48.78322096 -39.59031105 45.17382431 C-39.60013893 43.15994087 -39.63426713 41.14622188 -39.66911888 39.13261604 C-39.64368203 27.96399696 -36.96115239 18.23441382 -29.10042381 9.99609566 C-20.16388642 2.26719845 -11.55208959 -0.05800836 0 0 Z " fill="#15F5BA" transform="translate(363.0769863128662,323.75390434265137)"/>
</svg>
